<?xml version="1.0" encoding="utf-8"?>
<!-- Generator: Adobe Illustrator 26.5.0, SVG Export Plug-In . SVG Version: 6.00 Build 0)  -->
<svg version="1.1" xmlns="http://www.w3.org/2000/svg" xmlns:xlink="http://www.w3.org/1999/xlink" x="0px" y="0px"
	 viewBox="0 0 454.19 295.83" style="enable-background:new 0 0 454.19 295.83;" xml:space="preserve">
<style type="text/css">
	.st0{fill:#00173A;}
</style>
<g id="Layer_1">
	<g>
		<g>
			<path class="st0" d="M266.5,85.59h-12.47c-1.22,0-2.21,0.99-2.21,2.21v121.27c0,1.22,0.99,2.21,2.21,2.21h12.47
				c1.22,0,2.21-0.99,2.21-2.21V87.79C268.7,86.58,267.71,85.59,266.5,85.59z"/>
			<path class="st0" d="M366.64,85.57h-12.47c-1.22,0-2.21,0.99-2.21,2.21v46.89c-6.8-5.63-15.18-8.6-24.27-8.6
				c-7.27,0-14.12,1.84-19.81,5.33c-13.04,7.95-20.83,22.21-20.83,38.14c0,15.88,7.72,30.08,20.65,37.97
				c5.63,3.45,13.23,5.51,20.33,5.51c9.26,0,17.91-3.16,24.44-8.92v4.95c0,1.22,0.99,2.21,2.21,2.21h11.96
				c1.22,0,2.21-0.99,2.21-2.21V87.78C368.85,86.56,367.86,85.57,366.64,85.57z M351.66,185.34c-5.27,6.99-13.27,11.16-21.4,11.16
				c-14.76,0-26.31-11.84-26.31-26.96c0-15.37,10.95-26.96,25.46-26.96c8.64,0,16.75,4.07,22.24,11.16c0.2,0.26,0.32,0.6,0.32,0.94
				v29.73C351.96,184.75,351.85,185.08,351.66,185.34z"/>
			<path class="st0" d="M228.86,127.81h-12.47c-1.22,0-2.21,0.99-2.21,2.21v39.5c0,11.41-2.26,15.87-4.71,18.99
				c-3.84,5.04-10.17,8.05-16.92,8.05c-6.37,0-12.15-2.61-15.86-7.16c-4.33-5.26-4.46-11.92-4.61-19.64l-0.01-0.53
				c-0.13-15.65-8.09-30.17-20.82-37.94c-5.7-3.49-12.55-5.33-19.81-5.33c-11.45,0-21.76,4.76-29.15,13.44V87.78
				c0-1.22-0.99-2.21-2.21-2.21H87.59c-1.22,0-2.21,0.99-2.21,2.21v121.27c0,1.22,0.99,2.21,2.21,2.21h12.47
				c1.22,0,2.21-0.99,2.21-2.21v-43.5c0-0.08,0.01-0.17,0.02-0.25c1.61-10.98,12.55-22.83,27.42-22.83
				c15.99,0,25.55,13.8,25.55,27.14l0.05,1.59c0.25,8.92,0.53,19.03,7.37,27.77c6.85,8.88,18.04,14.18,29.93,14.18
				c12.2,0,23.33-5.43,30.53-14.9c5.55-7.25,7.92-16.11,7.92-29.61v-38.62C231.07,128.8,230.08,127.81,228.86,127.81z"/>
		</g>
	</g>
</g>
<g id="Layer_2">
</g>
</svg>
